<svg data-v-fde0c5aa="" xmlns="http://www.w3.org/2000/svg" viewBox="0 0 300 300" class="iconLeft"><!----><defs data-v-fde0c5aa=""><!----></defs><rect data-v-fde0c5aa="" fill="#E5EAFE" x="0" y="0" width="300px" height="300px" class="logo-background-square"></rect><defs data-v-fde0c5aa=""><!----></defs><g data-v-fde0c5aa="" id="9bffcb3c-dc4e-4b2a-92a4-2d0f7dbf30f1" fill="#22255B" transform="matrix(3.1721708020444335,0,0,3.1721708020444335,106.78415419403703,121.40288064309992)"><path d="M4.38 14.71L3.22 14.71L3.22 14.71Q3.22 13.37 3.21 12.08L3.21 12.08L3.21 12.08Q3.21 10.79 3.14 9.48L3.14 9.48L3.14 9.48Q3.07 9.49 3.01 9.49L3.01 9.49L3.01 9.49Q2.95 9.49 2.88 9.49L2.88 9.49L2.31 9.49L1.58 14.71L0.52 14.71L2.13 3.19L3.88 3.19L3.88 3.19Q4.76 3.19 5.19 3.53L5.19 3.53L5.19 3.53Q5.63 3.86 5.63 4.70L5.63 4.70L5.63 4.70Q5.63 4.96 5.59 5.26L5.59 5.26L5.26 7.56L5.26 7.56Q5.08 8.81 4.17 9.25L4.17 9.25L4.17 9.25Q4.27 10.64 4.31 12.00L4.31 12.00L4.31 12.00Q4.35 13.36 4.38 14.71L4.38 14.71ZM4.19 7.57L4.49 5.40L4.49 5.40Q4.51 5.29 4.51 5.19L4.51 5.19L4.51 5.19Q4.52 5.08 4.52 4.98L4.52 4.98L4.52 4.98Q4.52 4.61 4.35 4.44L4.35 4.44L4.35 4.44Q4.17 4.27 3.72 4.27L3.72 4.27L3.04 4.27L2.45 8.53L3.15 8.53L3.15 8.53Q3.64 8.53 3.88 8.29L3.88 8.29L3.88 8.29Q4.12 8.06 4.19 7.57L4.19 7.57ZM5.29 13.12L6.05 7.64L6.05 7.64Q6.17 6.80 6.63 6.36L6.63 6.36L6.63 6.36Q7.08 5.91 7.90 5.91L7.90 5.91L7.90 5.91Q9.27 5.91 9.27 7.22L9.27 7.22L9.27 7.22Q9.27 7.32 9.26 7.43L9.26 7.43L9.26 7.43Q9.25 7.53 9.24 7.64L9.24 7.64L8.48 13.12L8.48 13.12Q8.36 13.96 7.90 14.40L7.90 14.40L7.90 14.40Q7.43 14.84 6.64 14.84L6.64 14.84L6.64 14.84Q5.25 14.84 5.25 13.55L5.25 13.55L5.25 13.55Q5.25 13.36 5.29 13.12L5.29 13.12ZM7.55 13.09L8.30 7.67L8.30 7.67Q8.32 7.60 8.32 7.55L8.32 7.55L8.32 7.55Q8.32 7.49 8.32 7.43L8.32 7.43L8.32 7.43Q8.32 7.18 8.20 7.04L8.20 7.04L8.20 7.04Q8.08 6.90 7.76 6.90L7.76 6.90L7.76 6.90Q7.36 6.90 7.20 7.11L7.20 7.11L7.20 7.11Q7.04 7.31 6.99 7.67L6.99 7.67L6.23 13.12L6.23 13.12Q6.22 13.19 6.21 13.24L6.21 13.24L6.21 13.24Q6.20 13.30 6.20 13.36L6.20 13.36L6.20 13.36Q6.20 13.61 6.33 13.73L6.33 13.73L6.33 13.73Q6.45 13.86 6.78 13.86L6.78 13.86L6.78 13.86Q7.17 13.86 7.33 13.66L7.33 13.66L7.33 13.66Q7.49 13.47 7.55 13.09L7.55 13.09ZM14.35 14.71L13.40 14.71L14.41 7.50L14.41 7.50Q14.42 7.45 14.42 7.40L14.42 7.40L14.42 7.40Q14.42 7.35 14.42 7.31L14.42 7.31L14.42 7.31Q14.42 6.86 14 6.86L14 6.86L14 6.86Q13.61 6.86 13.29 7.39L13.29 7.39L12.26 14.71L11.30 14.71L12.31 7.50L12.31 7.50Q12.32 7.45 12.32 7.40L12.32 7.40L12.32 7.40Q12.32 7.35 12.32 7.31L12.32 7.31L12.32 7.31Q12.32 6.86 11.90 6.86L11.90 6.86L11.90 6.86Q11.72 6.86 11.54 6.99L11.54 6.99L11.54 6.99Q11.35 7.11 11.20 7.39L11.20 7.39L10.18 14.71L9.21 14.71L10.42 6.05L11.23 6.05L11.23 6.05Q11.23 6.36 11.19 6.69L11.19 6.69L11.19 6.69Q11.42 6.33 11.75 6.12L11.75 6.12L11.75 6.12Q12.07 5.91 12.43 5.91L12.43 5.91L12.43 5.91Q13.19 5.91 13.26 6.66L13.26 6.66L13.26 6.66Q13.50 6.31 13.83 6.11L13.83 6.11L13.83 6.11Q14.15 5.91 14.53 5.91L14.53 5.91L14.53 5.91Q15.40 5.91 15.40 6.99L15.40 6.99L15.40 6.99Q15.40 7.22 15.36 7.49L15.36 7.49L14.35 14.71ZM17.58 13.20L17.58 13.20L17.58 13.20Q17.64 12.80 17.68 12.57L17.68 12.57L17.68 12.57Q17.71 12.33 17.72 12.21L17.72 12.21L17.72 12.21Q17.74 12.10 17.74 12.05L17.74 12.05L17.74 12.05Q17.74 12.01 17.74 11.98L17.74 11.98L17.74 11.98Q17.74 11.79 17.68 11.61L17.68 11.61L17.68 11.61Q17.61 11.42 17.44 11.19L17.44 11.19L17.44 11.19Q17.19 10.84 16.88 10.53L16.88 10.53L16.88 10.53Q16.56 10.22 16.34 9.90L16.34 9.90L16.34 9.90Q16.18 9.67 16.11 9.47L16.11 9.47L16.11 9.47Q16.04 9.27 16.04 9.00L16.04 9.00L16.04 9.00Q16.04 8.95 16.05 8.87L16.05 8.87L16.05 8.87Q16.06 8.79 16.07 8.64L16.07 8.64L16.07 8.64Q16.09 8.50 16.12 8.25L16.12 8.25L16.12 8.25Q16.16 7.99 16.21 7.57L16.21 7.57L16.21 7.57Q16.34 6.68 16.79 6.29L16.79 6.29L16.79 6.29Q17.23 5.91 17.99 5.91L17.99 5.91L17.99 5.91Q18.75 5.91 19.04 6.18L19.04 6.18L19.04 6.18Q19.33 6.45 19.33 7.04L19.33 7.04L19.33 7.04Q19.33 7.10 19.33 7.18L19.33 7.18L19.33 7.18Q19.32 7.27 19.30 7.47L19.30 7.47L19.30 7.47Q19.28 7.67 19.23 8.03L19.23 8.03L19.23 8.03Q19.18 8.39 19.10 8.99L19.10 8.99L18.21 8.99L18.21 8.99Q18.30 8.43 18.34 8.12L18.34 8.12L18.34 8.12Q18.38 7.81 18.40 7.66L18.40 7.66L18.40 7.66Q18.42 7.50 18.42 7.46L18.42 7.46L18.42 7.46Q18.42 7.42 18.42 7.39L18.42 7.39L18.42 7.39Q18.42 7.10 18.27 6.99L18.27 6.99L18.27 6.99Q18.12 6.87 17.88 6.87L17.88 6.87L17.88 6.87Q17.26 6.87 17.15 7.57L17.15 7.57L17.15 7.57Q17.09 7.99 17.06 8.23L17.06 8.23L17.06 8.23Q17.02 8.47 17.01 8.60L17.01 8.60L17.01 8.60Q17.00 8.72 17.00 8.76L17.00 8.76L17.00 8.76Q17.00 8.81 17.00 8.83L17.00 8.83L17.00 8.83Q17.00 9.03 17.06 9.17L17.06 9.17L17.06 9.17Q17.12 9.31 17.28 9.51L17.28 9.51L17.28 9.51Q17.51 9.81 17.82 10.09L17.82 10.09L17.82 10.09Q18.13 10.37 18.35 10.68L18.35 10.68L18.35 10.68Q18.55 10.95 18.63 11.19L18.63 11.19L18.63 11.19Q18.72 11.44 18.72 11.75L18.72 11.75L18.72 11.75Q18.72 11.82 18.71 11.89L18.71 11.89L18.71 11.89Q18.70 11.97 18.68 12.13L18.68 12.13L18.68 12.13Q18.66 12.29 18.63 12.57L18.63 12.57L18.63 12.57Q18.59 12.84 18.54 13.27L18.54 13.27L18.54 13.27Q18.42 14.11 17.97 14.48L17.97 14.48L17.97 14.48Q17.51 14.84 16.70 14.84L16.70 14.84L16.70 14.84Q15.39 14.84 15.39 13.64L15.39 13.64L15.39 13.64Q15.39 13.59 15.39 13.52L15.39 13.52L15.39 13.52Q15.40 13.44 15.42 13.26L15.42 13.26L15.42 13.26Q15.44 13.08 15.49 12.74L15.49 12.74L15.49 12.74Q15.54 12.40 15.62 11.82L15.62 11.82L16.49 11.82L16.49 11.82Q16.41 12.36 16.37 12.67L16.37 12.67L16.37 12.67Q16.32 12.98 16.30 13.13L16.30 13.13L16.30 13.13Q16.28 13.29 16.28 13.34L16.28 13.34L16.28 13.34Q16.28 13.38 16.28 13.40L16.28 13.40L16.28 13.40Q16.28 13.71 16.44 13.80L16.44 13.80L16.44 13.80Q16.60 13.90 16.86 13.90L16.86 13.90L16.86 13.90Q17.47 13.90 17.58 13.20ZM24.33 14.71L23.04 14.71L23.04 14.71Q23.06 14.10 23.09 13.29L23.09 13.29L23.09 13.29Q23.11 12.49 23.16 11.62L23.16 11.62L23.16 11.62Q23.20 10.75 23.23 9.88L23.23 9.88L23.23 9.88Q23.27 9.02 23.31 8.27L23.31 8.27L23.31 8.27Q23.35 7.53 23.38 6.98L23.38 6.98L23.38 6.98Q23.41 6.43 23.42 6.17L23.42 6.17L23.42 6.17Q23.37 6.43 23.24 6.98L23.24 6.98L23.24 6.98Q23.11 7.53 22.94 8.27L22.94 8.27L22.94 8.27Q22.76 9.02 22.55 9.88L22.55 9.88L22.55 9.88Q22.34 10.75 22.13 11.62L22.13 11.62L22.13 11.62Q21.92 12.49 21.72 13.29L21.72 13.29L21.72 13.29Q21.52 14.10 21.35 14.71L21.35 14.71L20.05 14.71L20.37 3.19L21.48 3.19L21.48 3.19Q21.45 3.91 21.41 4.77L21.41 4.77L21.41 4.77Q21.38 5.64 21.34 6.56L21.34 6.56L21.34 6.56Q21.29 7.48 21.26 8.37L21.26 8.37L21.26 8.37Q21.22 9.27 21.19 10.03L21.19 10.03L21.19 10.03Q21.15 10.79 21.13 11.38L21.13 11.38L21.13 11.38Q21.10 11.97 21.08 12.25L21.08 12.25L21.08 12.25Q21.15 11.97 21.29 11.38L21.29 11.38L21.29 11.38Q21.43 10.79 21.62 10.03L21.62 10.03L21.62 10.03Q21.81 9.27 22.03 8.37L22.03 8.37L22.03 8.37Q22.25 7.48 22.48 6.56L22.48 6.56L22.48 6.56Q22.71 5.64 22.93 4.77L22.93 4.77L22.93 4.77Q23.16 3.91 23.35 3.19L23.35 3.19L24.42 3.19L24.42 3.19Q24.39 3.91 24.35 4.77L24.35 4.77L24.35 4.77Q24.32 5.64 24.28 6.56L24.28 6.56L24.28 6.56Q24.23 7.48 24.19 8.37L24.19 8.37L24.19 8.37Q24.15 9.27 24.11 10.03L24.11 10.03L24.11 10.03Q24.08 10.79 24.05 11.38L24.05 11.38L24.05 11.38Q24.02 11.97 24.01 12.25L24.01 12.25L24.01 12.25Q24.08 11.97 24.22 11.38L24.22 11.38L24.22 11.38Q24.36 10.79 24.55 10.03L24.55 10.03L24.55 10.03Q24.74 9.27 24.95 8.37L24.95 8.37L24.95 8.37Q25.17 7.48 25.40 6.56L25.40 6.56L25.40 6.56Q25.63 5.64 25.86 4.77L25.86 4.77L25.86 4.77Q26.08 3.91 26.28 3.19L26.28 3.19L27.40 3.19L24.33 14.71ZM29.29 14.71L28.41 14.71L28.41 14.71Q28.39 14.67 28.39 14.53L28.39 14.53L28.39 14.53Q28.39 14.46 28.40 14.38L28.40 14.38L28.40 14.38Q28.41 14.29 28.42 14.20L28.42 14.20L28.42 14.20Q28.21 14.50 27.93 14.67L27.93 14.67L27.93 14.67Q27.65 14.84 27.29 14.84L27.29 14.84L27.29 14.84Q26.77 14.84 26.49 14.60L26.49 14.60L26.49 14.60Q26.21 14.35 26.21 13.82L26.21 13.82L26.21 13.82Q26.21 13.73 26.21 13.65L26.21 13.65L26.21 13.65Q26.22 13.57 26.24 13.47L26.24 13.47L26.42 12.19L26.42 12.19Q26.50 11.56 26.73 11.14L26.73 11.14L26.73 11.14Q26.96 10.71 27.31 10.42L27.31 10.42L27.31 10.42Q27.65 10.12 28.08 9.92L28.08 9.92L28.08 9.92Q28.52 9.72 29.02 9.52L29.02 9.52L29.29 7.63L29.29 7.63Q29.30 7.56 29.30 7.51L29.30 7.51L29.30 7.51Q29.30 7.46 29.30 7.41L29.30 7.41L29.30 7.41Q29.30 7.14 29.18 7.01L29.18 7.01L29.18 7.01Q29.05 6.87 28.76 6.87L28.76 6.87L28.76 6.87Q28.38 6.87 28.23 7.07L28.23 7.07L28.23 7.07Q28.08 7.27 28.03 7.63L28.03 7.63L27.76 9.45L26.91 9.45L27.17 7.62L27.17 7.62Q27.30 6.76 27.71 6.34L27.71 6.34L27.71 6.34Q28.13 5.91 28.92 5.91L28.92 5.91L28.92 5.91Q30.24 5.91 30.24 7.20L30.24 7.20L30.24 7.20Q30.24 7.31 30.23 7.41L30.23 7.41L30.23 7.41Q30.23 7.50 30.21 7.62L30.21 7.62L29.34 13.72L29.34 13.72Q29.32 13.94 29.29 14.15L29.29 14.15L29.29 14.15Q29.27 14.35 29.27 14.52L29.27 14.52L29.27 14.52Q29.27 14.67 29.29 14.71L29.29 14.71ZM28.48 13.36L28.91 10.29L28.91 10.29Q28.46 10.44 28.18 10.63L28.18 10.63L28.18 10.63Q27.90 10.81 27.73 11.04L27.73 11.04L27.73 11.04Q27.57 11.27 27.48 11.57L27.48 11.57L27.48 11.57Q27.40 11.87 27.34 12.26L27.34 12.26L27.22 13.19L27.22 13.19Q27.20 13.23 27.20 13.37L27.20 13.37L27.20 13.37Q27.20 13.90 27.78 13.90L27.78 13.90L27.78 13.90Q27.99 13.90 28.17 13.78L28.17 13.78L28.17 13.78Q28.36 13.65 28.48 13.36L28.48 13.36ZM32.20 14L32.09 14.77L32.09 14.77Q32.02 14.80 31.88 14.82L31.88 14.82L31.88 14.82Q31.74 14.84 31.63 14.84L31.63 14.84L31.63 14.84Q30.95 14.84 30.64 14.48L30.64 14.48L30.64 14.48Q30.32 14.13 30.32 13.48L30.32 13.48L30.32 13.48Q30.32 13.37 30.32 13.27L30.32 13.27L30.32 13.27Q30.32 13.16 30.35 13.05L30.35 13.05L31.22 6.90L30.81 6.90L30.93 6.05L31.33 6.05L31.72 3.30L32.69 3.30L32.30 6.05L33.28 6.05L33.17 6.90L32.19 6.90L31.32 13.05L31.32 13.05Q31.30 13.13 31.30 13.21L31.30 13.21L31.30 13.21Q31.29 13.29 31.29 13.36L31.29 13.36L31.29 13.36Q31.29 13.72 31.46 13.87L31.46 13.87L31.46 13.87Q31.64 14.01 32.02 14.01L32.02 14.01L32.02 14.01Q32.06 14.01 32.11 14.01L32.11 14.01L32.11 14.01Q32.16 14.01 32.20 14L32.20 14ZM35.14 13.09L35.41 11.17L36.30 11.17L36.04 13.10L36.04 13.10Q35.92 13.90 35.48 14.37L35.48 14.37L35.48 14.37Q35.04 14.84 34.24 14.84L34.24 14.84L34.24 14.84Q33.53 14.84 33.21 14.48L33.21 14.48L33.21 14.48Q32.89 14.11 32.89 13.48L32.89 13.48L32.89 13.48Q32.89 13.38 32.89 13.29L32.89 13.29L32.89 13.29Q32.89 13.19 32.91 13.08L32.91 13.08L33.67 7.70L33.67 7.70Q33.78 6.90 34.24 6.40L34.24 6.40L34.24 6.40Q34.71 5.91 35.50 5.91L35.50 5.91L35.50 5.91Q36.19 5.91 36.49 6.27L36.49 6.27L36.49 6.27Q36.79 6.64 36.79 7.24L36.79 7.24L36.79 7.24Q36.79 7.35 36.79 7.46L36.79 7.46L36.79 7.46Q36.79 7.57 36.76 7.69L36.76 7.69L36.50 9.56L35.63 9.56L35.90 7.67L35.90 7.67Q35.91 7.63 35.91 7.48L35.91 7.48L35.91 7.48Q35.91 6.90 35.36 6.90L35.36 6.90L35.36 6.90Q35.04 6.90 34.85 7.11L34.85 7.11L34.85 7.11Q34.66 7.32 34.61 7.69L34.61 7.69L33.85 13.08L33.85 13.08Q33.84 13.13 33.84 13.18L33.84 13.18L33.84 13.18Q33.84 13.23 33.84 13.27L33.84 13.27L33.84 13.27Q33.84 13.86 34.38 13.86L34.38 13.86L34.38 13.86Q35.04 13.86 35.14 13.09L35.14 13.09ZM39.97 14.71L39.00 14.71L40.00 7.56L40.00 7.56Q40.01 7.49 40.01 7.43L40.01 7.43L40.01 7.43Q40.01 7.38 40.01 7.32L40.01 7.32L40.01 7.32Q40.01 6.86 39.54 6.86L39.54 6.86L39.54 6.86Q39.33 6.86 39.10 6.99L39.10 6.99L39.10 6.99Q38.88 7.11 38.72 7.39L38.72 7.39L37.70 14.71L36.74 14.71L38.35 3.19L39.31 3.19L38.85 6.54L38.85 6.54Q39.07 6.26 39.40 6.08L39.40 6.08L39.40 6.08Q39.72 5.91 40.08 5.91L40.08 5.91L40.08 5.91Q41.02 5.91 41.02 6.99L41.02 6.99L41.02 6.99Q41.02 7.21 40.98 7.50L40.98 7.50L39.97 14.71ZM43.71 9.77L44.00 7.69L44.00 7.69Q44.02 7.63 44.02 7.58L44.02 7.58L44.02 7.58Q44.02 7.53 44.02 7.49L44.02 7.49L44.02 7.49Q44.02 6.92 43.47 6.92L43.47 6.92L43.47 6.92Q42.85 6.92 42.76 7.69L42.76 7.69L42.46 9.77L43.71 9.77ZM43.25 13.09L43.51 11.19L44.42 11.19L44.16 13.09L44.16 13.09Q43.90 14.84 42.35 14.84L42.35 14.84L42.35 14.84Q41.06 14.84 41.06 13.55L41.06 13.55L41.06 13.55Q41.06 13.34 41.10 13.09L41.10 13.09L41.86 7.69L41.86 7.69Q41.99 6.80 42.43 6.36L42.43 6.36L42.43 6.36Q42.88 5.91 43.61 5.91L43.61 5.91L43.61 5.91Q44.94 5.91 44.94 7.24L44.94 7.24L44.94 7.24Q44.94 7.35 44.94 7.46L44.94 7.46L44.94 7.46Q44.94 7.57 44.91 7.69L44.91 7.69L44.52 10.47L42.36 10.47L42.00 13.09L42.00 13.09Q41.99 13.16 41.98 13.22L41.98 13.22L41.98 13.22Q41.97 13.27 41.97 13.33L41.97 13.33L41.97 13.33Q41.97 13.86 42.49 13.86L42.49 13.86L42.49 13.86Q43.15 13.86 43.25 13.09L43.25 13.09ZM45.85 14.71L44.88 14.71L46.09 6.05L46.90 6.05L46.90 6.05Q46.90 6.37 46.86 6.68L46.86 6.68L46.86 6.68Q47.10 6.30 47.38 6.13L47.38 6.13L47.38 6.13Q47.66 5.96 48.01 5.96L48.01 5.96L48.01 5.96Q48.17 5.96 48.30 6.02L48.30 6.02L48.15 7.10L48.15 7.10Q48.08 7.04 47.96 7.02L47.96 7.02L47.96 7.02Q47.84 7 47.73 7L47.73 7L47.73 7Q47.50 7 47.27 7.11L47.27 7.11L47.27 7.11Q47.04 7.21 46.86 7.52L46.86 7.52L45.85 14.71Z"></path></g><defs data-v-fde0c5aa=""><linearGradient data-v-fde0c5aa="" gradientTransform="rotate(25)" id="dd1863c7-bb78-453d-81e0-ee37b54e0936" x1="0%" y1="0%" x2="100%" y2="0%"><stop data-v-fde0c5aa="" offset="0%" stop-color="#5106FF" stop-opacity="1"></stop><stop data-v-fde0c5aa="" offset="100%" stop-color="#61CBF2" stop-opacity="1"></stop></linearGradient></defs><g data-v-fde0c5aa="" id="1ddabc32-45d0-4dc0-9746-00c590e95ead" stroke="none" fill="url(#dd1863c7-bb78-453d-81e0-ee37b54e0936)" transform="matrix(0.5835124521115346,0,0,0.5835124521115346,38.54121886972116,120.82437739442328)"><path d="M50 2.5C23.768 2.5 2.5 23.768 2.5 50S23.768 97.5 50 97.5 97.5 76.232 97.5 50 76.232 2.5 50 2.5zm0 61c-7.456 0-13.5-6.044-13.5-13.5 0-.547.042-1.083.105-1.612L7.66 31.59A46.327 46.327 0 0 1 31.59 7.66l16.799 28.944A13.808 13.808 0 0 1 50 36.5c7.456 0 13.5 6.045 13.5 13.5 0 7.456-6.044 13.5-13.5 13.5z"></path><path d="M50 38.25c-6.489 0-11.75 5.261-11.75 11.75 0 6.488 5.261 11.75 11.75 11.75 6.488 0 11.75-5.262 11.75-11.75 0-6.489-5.262-11.75-11.75-11.75zm0 16.764a5.014 5.014 0 1 1 0-10.028 5.014 5.014 0 0 1 0 10.028z"></path></g><!----></svg>